{
    "asset" : {
        "generator" : "Khronos glTF Blender I/O v1.4.40",
        "version" : "2.0"
    },
    "scene" : 0,
    "scenes" : [
        {
            "name" : "Scene",
            "nodes" : [
                0
            ]
        }
    ],
    "nodes" : [
        {
            "mesh" : 0,
            "name" : "EnemyMesh",
            "scale" : [
                -1,
                -0.06541836261749268,
                1
            ]
        }
    ],
    "materials" : [
        {
            "doubleSided" : true,
            "emissiveFactor" : [
                1,
                0.024569809902459383,
                0
            ],
            "name" : "Base",
            "pbrMetallicRoughness" : {
                "baseColorFactor" : [
                    0.8000000715255737,
                    0.042737849056720734,
                    0.05635114759206772,
                    1
                ],
                "metallicFactor" : 0,
                "roughnessFactor" : 0.4000000059604645
            }
        },
        {
            "doubleSided" : true,
            "emissiveFactor" : [
                0.4390298396208969,
                0.2196530993932022,
                0.750965469443976
            ],
            "name" : "Wing",
            "pbrMetallicRoughness" : {
                "baseColorFactor" : [
                    0.7201394438743591,
                    0.4924766719341278,
                    0.8000000715255737,
                    1
                ],
                "metallicFactor" : 0,
                "roughnessFactor" : 0.5
            }
        },
        {
            "doubleSided" : true,
            "emissiveFactor" : [
                1,
                1,
                0.4706113287056013
            ],
            "name" : "Material",
            "pbrMetallicRoughness" : {
                "baseColorFactor" : [
                    0.8000000715255737,
                    0.6918498277664185,
                    0.10216749459505081,
                    1
                ],
                "metallicFactor" : 0,
                "roughnessFactor" : 0.5
            }
        }
    ],
    "meshes" : [
        {
            "name" : "Cube.002",
            "primitives" : [
                {
                    "attributes" : {
                        "POSITION" : 0,
                        "NORMAL" : 1,
                        "TEXCOORD_0" : 2
                    },
                    "indices" : 3,
                    "material" : 0
                },
                {
                    "attributes" : {
                        "POSITION" : 4,
                        "NORMAL" : 5,
                        "TEXCOORD_0" : 6
                    },
                    "indices" : 7,
                    "material" : 1
                },
                {
                    "attributes" : {
                        "POSITION" : 8,
                        "NORMAL" : 9,
                        "TEXCOORD_0" : 10
                    },
                    "indices" : 11,
                    "material" : 2
                }
            ]
        }
    ],
    "accessors" : [
        {
            "bufferView" : 0,
            "componentType" : 5126,
            "count" : 52,
            "max" : [
                1.4142135381698608,
                21.617990493774414,
                1.3868358135223389
            ],
            "min" : [
                -1.4142135381698608,
                -21.617990493774414,
                -2.0026490688323975
            ],
            "type" : "VEC3"
        },
        {
            "bufferView" : 1,
            "componentType" : 5126,
            "count" : 52,
            "type" : "VEC3"
        },
        {
            "bufferView" : 2,
            "componentType" : 5126,
            "count" : 52,
            "type" : "VEC2"
        },
        {
            "bufferView" : 3,
            "componentType" : 5123,
            "count" : 84,
            "type" : "SCALAR"
        },
        {
            "bufferView" : 4,
            "componentType" : 5126,
            "count" : 48,
            "max" : [
                2.0602545738220215,
                13.761398315429688,
                0.8286455869674683
            ],
            "min" : [
                -2.0602545738220215,
                -13.278115272521973,
                -0.3332841098308563
            ],
            "type" : "VEC3"
        },
        {
            "bufferView" : 5,
            "componentType" : 5126,
            "count" : 48,
            "type" : "VEC3"
        },
        {
            "bufferView" : 6,
            "componentType" : 5126,
            "count" : 48,
            "type" : "VEC2"
        },
        {
            "bufferView" : 7,
            "componentType" : 5123,
            "count" : 72,
            "type" : "SCALAR"
        },
        {
            "bufferView" : 8,
            "componentType" : 5126,
            "count" : 4,
            "max" : [
                0.5346957445144653,
                8.17344856262207,
                1.1284984350204468
            ],
            "min" : [
                -0.5346957445144653,
                -8.173513412475586,
                1.1284984350204468
            ],
            "type" : "VEC3"
        },
        {
            "bufferView" : 9,
            "componentType" : 5126,
            "count" : 4,
            "type" : "VEC3"
        },
        {
            "bufferView" : 10,
            "componentType" : 5126,
            "count" : 4,
            "type" : "VEC2"
        },
        {
            "bufferView" : 11,
            "componentType" : 5123,
            "count" : 6,
            "type" : "SCALAR"
        }
    ],
    "bufferViews" : [
        {
            "buffer" : 0,
            "byteLength" : 624,
            "byteOffset" : 0
        },
        {
            "buffer" : 0,
            "byteLength" : 624,
            "byteOffset" : 624
        },
        {
            "buffer" : 0,
            "byteLength" : 416,
            "byteOffset" : 1248
        },
        {
            "buffer" : 0,
            "byteLength" : 168,
            "byteOffset" : 1664
        },
        {
            "buffer" : 0,
            "byteLength" : 576,
            "byteOffset" : 1832
        },
        {
            "buffer" : 0,
            "byteLength" : 576,
            "byteOffset" : 2408
        },
        {
            "buffer" : 0,
            "byteLength" : 384,
            "byteOffset" : 2984
        },
        {
            "buffer" : 0,
            "byteLength" : 144,
            "byteOffset" : 3368
        },
        {
            "buffer" : 0,
            "byteLength" : 48,
            "byteOffset" : 3512
        },
        {
            "buffer" : 0,
            "byteLength" : 48,
            "byteOffset" : 3560
        },
        {
            "buffer" : 0,
            "byteLength" : 32,
            "byteOffset" : 3608
        },
        {
            "buffer" : 0,
            "byteLength" : 12,
            "byteOffset" : 3640
        }
    ],
    "buffers" : [
        {
            "byteLength" : 3652,
            "uri" : "data:application/octet-stream;base64,"
        }
    ]
}
