{
    "asset" : {
        "generator" : "Khronos glTF Blender I/O v1.4.40",
        "version" : "2.0"
    },
    "scene" : 0,
    "scenes" : [
        {
            "name" : "Scene",
            "nodes" : [
                0
            ]
        }
    ],
    "nodes" : [
        {
            "mesh" : 0,
            "name" : "PlayerMesh"
        }
    ],
    "materials" : [
        {
            "doubleSided" : true,
            "emissiveFactor" : [
                0.026205179485755847,
                0.07056403861290272,
                0.10000000149011612
            ],
            "name" : "Base Gray",
            "pbrMetallicRoughness" : {
                "baseColorFactor" : [
                    0.40252038836479187,
                    0.48723679780960083,
                    0.8000000715255737,
                    1
                ],
                "metallicFactor" : 0,
                "roughnessFactor" : 0.5
            }
        },
        {
            "doubleSided" : true,
            "name" : "Black Glass",
            "pbrMetallicRoughness" : {
                "baseColorFactor" : [
                    0.010504080913960934,
                    0.017712635919451714,
                    0.07999677211046219,
                    1
                ],
                "metallicFactor" : 0,
                "roughnessFactor" : 0.5
            }
        },
        {
            "doubleSided" : true,
            "emissiveFactor" : [
                0.009407353541364571,
                0.008234410855686825,
                0.20000000298023224
            ],
            "name" : "Wing Blue",
            "pbrMetallicRoughness" : {
                "baseColorFactor" : [
                    0.05359501391649246,
                    0.15905967354774475,
                    0.8000000715255737,
                    1
                ],
                "metallicFactor" : 0,
                "roughnessFactor" : 0.5
            }
        },
        {
            "doubleSided" : true,
            "emissiveFactor" : [
                1,
                1,
                0.5567979078977032
            ],
            "name" : "Booster",
            "pbrMetallicRoughness" : {}
        }
    ],
    "meshes" : [
        {
            "name" : "Cube.005",
            "primitives" : [
                {
                    "attributes" : {
                        "POSITION" : 0,
                        "NORMAL" : 1,
                        "TEXCOORD_0" : 2
                    },
                    "indices" : 3,
                    "material" : 0
                },
                {
                    "attributes" : {
                        "POSITION" : 4,
                        "NORMAL" : 5,
                        "TEXCOORD_0" : 6
                    },
                    "indices" : 7,
                    "material" : 1
                },
                {
                    "attributes" : {
                        "POSITION" : 8,
                        "NORMAL" : 9,
                        "TEXCOORD_0" : 10
                    },
                    "indices" : 11,
                    "material" : 2
                },
                {
                    "attributes" : {
                        "POSITION" : 12,
                        "NORMAL" : 13,
                        "TEXCOORD_0" : 14
                    },
                    "indices" : 15,
                    "material" : 3
                }
            ]
        }
    ],
    "accessors" : [
        {
            "bufferView" : 0,
            "componentType" : 5126,
            "count" : 152,
            "max" : [
                4.758632183074951,
                0.774208664894104,
                1.9227808713912964
            ],
            "min" : [
                -4.758632183074951,
                -1.5493998527526855,
                -7.768941402435303
            ],
            "type" : "VEC3"
        },
        {
            "bufferView" : 1,
            "componentType" : 5126,
            "count" : 152,
            "type" : "VEC3"
        },
        {
            "bufferView" : 2,
            "componentType" : 5126,
            "count" : 152,
            "type" : "VEC2"
        },
        {
            "bufferView" : 3,
            "componentType" : 5123,
            "count" : 222,
            "type" : "SCALAR"
        },
        {
            "bufferView" : 4,
            "componentType" : 5126,
            "count" : 112,
            "max" : [
                0.7233357429504395,
                1.106609582901001,
                1
            ],
            "min" : [
                -0.723334789276123,
                -0.6522647738456726,
                -2.5525901317596436
            ],
            "type" : "VEC3"
        },
        {
            "bufferView" : 5,
            "componentType" : 5126,
            "count" : 112,
            "type" : "VEC3"
        },
        {
            "bufferView" : 6,
            "componentType" : 5126,
            "count" : 112,
            "type" : "VEC2"
        },
        {
            "bufferView" : 7,
            "componentType" : 5123,
            "count" : 180,
            "type" : "SCALAR"
        },
        {
            "bufferView" : 8,
            "componentType" : 5126,
            "count" : 152,
            "max" : [
                2.5171291828155518,
                1.0989395380020142,
                2.3901004791259766
            ],
            "min" : [
                -2.5171291828155518,
                -1.0851284265518188,
                -2.8970894813537598
            ],
            "type" : "VEC3"
        },
        {
            "bufferView" : 9,
            "componentType" : 5126,
            "count" : 152,
            "type" : "VEC3"
        },
        {
            "bufferView" : 10,
            "componentType" : 5126,
            "count" : 152,
            "type" : "VEC2"
        },
        {
            "bufferView" : 11,
            "componentType" : 5123,
            "count" : 216,
            "type" : "SCALAR"
        },
        {
            "bufferView" : 12,
            "componentType" : 5126,
            "count" : 16,
            "max" : [
                2.219879150390625,
                0.5243275165557861,
                1.936816692352295
            ],
            "min" : [
                -2.219879150390625,
                -0.8365485668182373,
                1.4029067754745483
            ],
            "type" : "VEC3"
        },
        {
            "bufferView" : 13,
            "componentType" : 5126,
            "count" : 16,
            "type" : "VEC3"
        },
        {
            "bufferView" : 14,
            "componentType" : 5126,
            "count" : 16,
            "type" : "VEC2"
        },
        {
            "bufferView" : 15,
            "componentType" : 5123,
            "count" : 18,
            "type" : "SCALAR"
        }
    ],
    "bufferViews" : [
        {
            "buffer" : 0,
            "byteLength" : 1824,
            "byteOffset" : 0
        },
        {
            "buffer" : 0,
            "byteLength" : 1824,
            "byteOffset" : 1824
        },
        {
            "buffer" : 0,
            "byteLength" : 1216,
            "byteOffset" : 3648
        },
        {
            "buffer" : 0,
            "byteLength" : 444,
            "byteOffset" : 4864
        },
        {
            "buffer" : 0,
            "byteLength" : 1344,
            "byteOffset" : 5308
        },
        {
            "buffer" : 0,
            "byteLength" : 1344,
            "byteOffset" : 6652
        },
        {
            "buffer" : 0,
            "byteLength" : 896,
            "byteOffset" : 7996
        },
        {
            "buffer" : 0,
            "byteLength" : 360,
            "byteOffset" : 8892
        },
        {
            "buffer" : 0,
            "byteLength" : 1824,
            "byteOffset" : 9252
        },
        {
            "buffer" : 0,
            "byteLength" : 1824,
            "byteOffset" : 11076
        },
        {
            "buffer" : 0,
            "byteLength" : 1216,
            "byteOffset" : 12900
        },
        {
            "buffer" : 0,
            "byteLength" : 432,
            "byteOffset" : 14116
        },
        {
            "buffer" : 0,
            "byteLength" : 192,
            "byteOffset" : 14548
        },
        {
            "buffer" : 0,
            "byteLength" : 192,
            "byteOffset" : 14740
        },
        {
            "buffer" : 0,
            "byteLength" : 128,
            "byteOffset" : 14932
        },
        {
            "buffer" : 0,
            "byteLength" : 36,
            "byteOffset" : 15060
        }
    ],
    "buffers" : [
        {
            "byteLength" : 15096,
            "uri" : "data:application/octet-stream;base64,"
        }
    ]
}
